<mxfile host="app.diagrams.net" modified="2023-04-26T02:05:04.619Z" agent="Mozilla/5.0 (X11; Ubuntu; Linux x86_64; rv:85.0) Gecko/20100101 Firefox/85.0" version="21.2.2" etag="h_TlX14yZMsJ9i66ZHNP" type="github">
  <diagram name="第 1 页" id="XvlPL95GIzQFI0PPtj-s">
    <mxGraphModel>
      <root>
        <mxCell id="0" />
        <mxCell id="1" parent="0" />
      </root>
    </mxGraphModel>
  </diagram>
</mxfile>
